<?xml version="1.0" encoding="UTF-8" standalone="no"?>
<!DOCTYPE svg PUBLIC "-//W3C//DTD SVG 1.1//EN"
 "http://www.w3.org/Graphics/SVG/1.1/DTD/svg11.dtd">
<!-- Generated by graphviz version 2.43.0 (0)
 -->
<!-- Title: %3 Pages: 1 -->
<svg width="321pt" height="568pt"
 viewBox="0.00 0.00 321.31 568.00" xmlns="http://www.w3.org/2000/svg" xmlns:xlink="http://www.w3.org/1999/xlink">
<g id="graph0" class="graph" transform="scale(1 1) rotate(0) translate(4 564)">
<title>%3</title>
<polygon fill="white" stroke="transparent" points="-4,4 -4,-564 317.31,-564 317.31,4 -4,4"/>
<!-- 4774992144 -->
<g id="node1" class="node">
<title>4774992144</title>
<polygon fill="#caff70" stroke="black" points="256.47,-20 168.18,-20 168.18,0 256.47,0 256.47,-20"/>
<text text-anchor="middle" x="212.32" y="-6.4" font-family="Times,serif" font-size="12.00">DivBackward0</text>
</g>
<!-- 4750840528 -->
<g id="node2" class="node">
<title>4750840528</title>
<polygon fill="lightgrey" stroke="black" points="258.48,-76 166.17,-76 166.17,-56 258.48,-56 258.48,-76"/>
<text text-anchor="middle" x="212.32" y="-62.4" font-family="Times,serif" font-size="12.00">SumBackward0</text>
</g>
<!-- 4750840528&#45;&gt;4774992144 -->
<g id="edge1" class="edge">
<title>4750840528&#45;&gt;4774992144</title>
<path fill="none" stroke="black" d="M212.32,-55.59C212.32,-48.7 212.32,-39.1 212.32,-30.57"/>
<polygon fill="black" stroke="black" points="215.82,-30.3 212.32,-20.3 208.82,-30.3 215.82,-30.3"/>
</g>
<!-- 4774992272 -->
<g id="node3" class="node">
<title>4774992272</title>
<polygon fill="lightgrey" stroke="black" points="258.31,-132 166.34,-132 166.34,-112 258.31,-112 258.31,-132"/>
<text text-anchor="middle" x="212.32" y="-118.4" font-family="Times,serif" font-size="12.00">PowBackward0</text>
</g>
<!-- 4774992272&#45;&gt;4750840528 -->
<g id="edge2" class="edge">
<title>4774992272&#45;&gt;4750840528</title>
<path fill="none" stroke="black" d="M212.32,-111.59C212.32,-104.7 212.32,-95.1 212.32,-86.57"/>
<polygon fill="black" stroke="black" points="215.82,-86.3 212.32,-76.3 208.82,-86.3 215.82,-86.3"/>
</g>
<!-- 4774992400 -->
<g id="node4" class="node">
<title>4774992400</title>
<polygon fill="lightgrey" stroke="black" points="257.14,-188 167.51,-188 167.51,-168 257.14,-168 257.14,-188"/>
<text text-anchor="middle" x="212.32" y="-174.4" font-family="Times,serif" font-size="12.00">SubBackward0</text>
</g>
<!-- 4774992400&#45;&gt;4774992272 -->
<g id="edge3" class="edge">
<title>4774992400&#45;&gt;4774992272</title>
<path fill="none" stroke="black" d="M212.32,-167.59C212.32,-160.7 212.32,-151.1 212.32,-142.57"/>
<polygon fill="black" stroke="black" points="215.82,-142.3 212.32,-132.3 208.82,-142.3 215.82,-142.3"/>
</g>
<!-- 4774992592 -->
<g id="node5" class="node">
<title>4774992592</title>
<polygon fill="lightgrey" stroke="black" points="258.14,-244 166.51,-244 166.51,-224 258.14,-224 258.14,-244"/>
<text text-anchor="middle" x="212.32" y="-230.4" font-family="Times,serif" font-size="12.00">AddBackward0</text>
</g>
<!-- 4774992592&#45;&gt;4774992400 -->
<g id="edge4" class="edge">
<title>4774992592&#45;&gt;4774992400</title>
<path fill="none" stroke="black" d="M212.32,-223.59C212.32,-216.7 212.32,-207.1 212.32,-198.57"/>
<polygon fill="black" stroke="black" points="215.82,-198.3 212.32,-188.3 208.82,-198.3 215.82,-198.3"/>
</g>
<!-- 4774992720 -->
<g id="node6" class="node">
<title>4774992720</title>
<polygon fill="lightgrey" stroke="black" points="201.47,-300 117.18,-300 117.18,-280 201.47,-280 201.47,-300"/>
<text text-anchor="middle" x="159.32" y="-286.4" font-family="Times,serif" font-size="12.00">MmBackward</text>
</g>
<!-- 4774992720&#45;&gt;4774992592 -->
<g id="edge5" class="edge">
<title>4774992720&#45;&gt;4774992592</title>
<path fill="none" stroke="black" d="M168.56,-279.59C176.16,-271.85 187.11,-260.69 196.16,-251.47"/>
<polygon fill="black" stroke="black" points="198.69,-253.89 203.2,-244.3 193.7,-248.98 198.69,-253.89"/>
</g>
<!-- 4774992848 -->
<g id="node7" class="node">
<title>4774992848</title>
<polygon fill="lightgrey" stroke="black" points="132.13,-356 38.52,-356 38.52,-336 132.13,-336 132.13,-356"/>
<text text-anchor="middle" x="85.32" y="-342.4" font-family="Times,serif" font-size="12.00">ReluBackward0</text>
</g>
<!-- 4774992848&#45;&gt;4774992720 -->
<g id="edge6" class="edge">
<title>4774992848&#45;&gt;4774992720</title>
<path fill="none" stroke="black" d="M97.88,-335.84C109,-327.72 125.46,-315.71 138.54,-306.16"/>
<polygon fill="black" stroke="black" points="140.94,-308.75 146.96,-300.03 136.82,-303.09 140.94,-308.75"/>
</g>
<!-- 4774993040 -->
<g id="node8" class="node">
<title>4774993040</title>
<polygon fill="lightgrey" stroke="black" points="131.14,-418 39.51,-418 39.51,-398 131.14,-398 131.14,-418"/>
<text text-anchor="middle" x="85.32" y="-404.4" font-family="Times,serif" font-size="12.00">AddBackward0</text>
</g>
<!-- 4774993040&#45;&gt;4774992848 -->
<g id="edge7" class="edge">
<title>4774993040&#45;&gt;4774992848</title>
<path fill="none" stroke="black" d="M85.32,-397.89C85.32,-389.52 85.32,-376.84 85.32,-366.23"/>
<polygon fill="black" stroke="black" points="88.82,-366.2 85.32,-356.2 81.82,-366.2 88.82,-366.2"/>
</g>
<!-- 4774993168 -->
<g id="node9" class="node">
<title>4774993168</title>
<polygon fill="lightgrey" stroke="black" points="84.47,-486 0.18,-486 0.18,-466 84.47,-466 84.47,-486"/>
<text text-anchor="middle" x="42.32" y="-472.4" font-family="Times,serif" font-size="12.00">MmBackward</text>
</g>
<!-- 4774993168&#45;&gt;4774993040 -->
<g id="edge8" class="edge">
<title>4774993168&#45;&gt;4774993040</title>
<path fill="none" stroke="black" d="M48.3,-465.82C54.85,-455.77 65.51,-439.42 73.71,-426.83"/>
<polygon fill="black" stroke="black" points="76.87,-428.39 79.4,-418.1 71,-424.57 76.87,-428.39"/>
</g>
<!-- 4774993360 -->
<g id="node10" class="node">
<title>4774993360</title>
<polygon fill="lightblue" stroke="black" points="69.32,-560 15.32,-560 15.32,-528 69.32,-528 69.32,-560"/>
<text text-anchor="middle" x="42.32" y="-546.4" font-family="Times,serif" font-size="12.00">W</text>
<text text-anchor="middle" x="42.32" y="-534.4" font-family="Times,serif" font-size="12.00"> (5, 10)</text>
</g>
<!-- 4774993360&#45;&gt;4774993168 -->
<g id="edge9" class="edge">
<title>4774993360&#45;&gt;4774993168</title>
<path fill="none" stroke="black" d="M42.32,-527.69C42.32,-518.4 42.32,-506.44 42.32,-496.47"/>
<polygon fill="black" stroke="black" points="45.82,-496.32 42.32,-486.32 38.82,-496.32 45.82,-496.32"/>
</g>
<!-- 4774993232 -->
<g id="node11" class="node">
<title>4774993232</title>
<polygon fill="lightblue" stroke="black" points="156.32,-492 102.32,-492 102.32,-460 156.32,-460 156.32,-492"/>
<text text-anchor="middle" x="129.32" y="-478.4" font-family="Times,serif" font-size="12.00">b</text>
<text text-anchor="middle" x="129.32" y="-466.4" font-family="Times,serif" font-size="12.00"> (1, 10)</text>
</g>
<!-- 4774993232&#45;&gt;4774993040 -->
<g id="edge10" class="edge">
<title>4774993232&#45;&gt;4774993040</title>
<path fill="none" stroke="black" d="M119.12,-459.69C112.59,-449.9 104.09,-437.15 97.25,-426.89"/>
<polygon fill="black" stroke="black" points="99.99,-424.7 91.54,-418.32 94.17,-428.58 99.99,-424.7"/>
</g>
<!-- 4774992912 -->
<g id="node12" class="node">
<title>4774992912</title>
<polygon fill="lightgrey" stroke="black" points="238.46,-356 150.18,-356 150.18,-336 238.46,-336 238.46,-356"/>
<text text-anchor="middle" x="194.32" y="-342.4" font-family="Times,serif" font-size="12.00">SliceBackward</text>
</g>
<!-- 4774992912&#45;&gt;4774992720 -->
<g id="edge11" class="edge">
<title>4774992912&#45;&gt;4774992720</title>
<path fill="none" stroke="black" d="M188.23,-335.59C183.46,-328.24 176.69,-317.8 170.9,-308.87"/>
<polygon fill="black" stroke="black" points="173.73,-306.79 165.35,-300.3 167.85,-310.59 173.73,-306.79"/>
</g>
<!-- 4774993104 -->
<g id="node13" class="node">
<title>4774993104</title>
<polygon fill="lightblue" stroke="black" points="257.32,-424 203.32,-424 203.32,-392 257.32,-392 257.32,-424"/>
<text text-anchor="middle" x="230.32" y="-410.4" font-family="Times,serif" font-size="12.00">α</text>
<text text-anchor="middle" x="230.32" y="-398.4" font-family="Times,serif" font-size="12.00"> (11, 1)</text>
</g>
<!-- 4774993104&#45;&gt;4774992912 -->
<g id="edge12" class="edge">
<title>4774993104&#45;&gt;4774992912</title>
<path fill="none" stroke="black" d="M221.24,-391.86C216.34,-383.69 210.25,-373.55 205.11,-364.98"/>
<polygon fill="black" stroke="black" points="207.96,-362.93 199.82,-356.15 201.96,-366.53 207.96,-362.93"/>
</g>
<!-- 4774992784 -->
<g id="node14" class="node">
<title>4774992784</title>
<polygon fill="lightgrey" stroke="black" points="313.29,-300 219.36,-300 219.36,-280 313.29,-280 313.29,-300"/>
<text text-anchor="middle" x="266.32" y="-286.4" font-family="Times,serif" font-size="12.00">SelectBackward</text>
</g>
<!-- 4774993104&#45;&gt;4774992784 -->
<g id="edge14" class="edge">
<title>4774993104&#45;&gt;4774992784</title>
<path fill="none" stroke="black" d="M235.53,-391.87C238.97,-381.75 243.54,-368.11 247.32,-356 252.15,-340.57 257.27,-322.96 260.98,-309.97"/>
<polygon fill="black" stroke="black" points="264.37,-310.87 263.73,-300.29 257.63,-308.96 264.37,-310.87"/>
</g>
<!-- 4774992784&#45;&gt;4774992592 -->
<g id="edge13" class="edge">
<title>4774992784&#45;&gt;4774992592</title>
<path fill="none" stroke="black" d="M256.92,-279.59C249.17,-271.85 238.01,-260.69 228.79,-251.47"/>
<polygon fill="black" stroke="black" points="231.17,-248.89 221.62,-244.3 226.22,-253.84 231.17,-248.89"/>
</g>
</g>
</svg>
