<?xml version="1.0" encoding="UTF-8" standalone="no"?>
<!DOCTYPE svg PUBLIC "-//W3C//DTD SVG 1.1//EN"
 "http://www.w3.org/Graphics/SVG/1.1/DTD/svg11.dtd">
<!-- Generated by graphviz version 2.43.0 (0)
 -->
<!-- Title: %3 Pages: 1 -->
<svg width="342pt" height="772pt"
 viewBox="0.00 0.00 342.32 772.00" xmlns="http://www.w3.org/2000/svg" xmlns:xlink="http://www.w3.org/1999/xlink">
<g id="graph0" class="graph" transform="scale(1 1) rotate(0) translate(4 768)">
<title>%3</title>
<polygon fill="white" stroke="transparent" points="-4,4 -4,-768 338.32,-768 338.32,4 -4,4"/>
<!-- 5032136464 -->
<g id="node1" class="node">
<title>5032136464</title>
<polygon fill="#caff70" stroke="black" points="307.47,-20 219.18,-20 219.18,0 307.47,0 307.47,-20"/>
<text text-anchor="middle" x="263.32" y="-6.4" font-family="Times,serif" font-size="12.00">DivBackward0</text>
</g>
<!-- 5032218704 -->
<g id="node2" class="node">
<title>5032218704</title>
<polygon fill="lightgrey" stroke="black" points="309.48,-76 217.17,-76 217.17,-56 309.48,-56 309.48,-76"/>
<text text-anchor="middle" x="263.32" y="-62.4" font-family="Times,serif" font-size="12.00">SumBackward0</text>
</g>
<!-- 5032218704&#45;&gt;5032136464 -->
<g id="edge1" class="edge">
<title>5032218704&#45;&gt;5032136464</title>
<path fill="none" stroke="black" d="M263.32,-55.59C263.32,-48.7 263.32,-39.1 263.32,-30.57"/>
<polygon fill="black" stroke="black" points="266.82,-30.3 263.32,-20.3 259.82,-30.3 266.82,-30.3"/>
</g>
<!-- 5032218832 -->
<g id="node3" class="node">
<title>5032218832</title>
<polygon fill="lightgrey" stroke="black" points="309.31,-132 217.34,-132 217.34,-112 309.31,-112 309.31,-132"/>
<text text-anchor="middle" x="263.32" y="-118.4" font-family="Times,serif" font-size="12.00">PowBackward0</text>
</g>
<!-- 5032218832&#45;&gt;5032218704 -->
<g id="edge2" class="edge">
<title>5032218832&#45;&gt;5032218704</title>
<path fill="none" stroke="black" d="M263.32,-111.59C263.32,-104.7 263.32,-95.1 263.32,-86.57"/>
<polygon fill="black" stroke="black" points="266.82,-86.3 263.32,-76.3 259.82,-86.3 266.82,-86.3"/>
</g>
<!-- 5032218960 -->
<g id="node4" class="node">
<title>5032218960</title>
<polygon fill="lightgrey" stroke="black" points="308.14,-188 218.51,-188 218.51,-168 308.14,-168 308.14,-188"/>
<text text-anchor="middle" x="263.32" y="-174.4" font-family="Times,serif" font-size="12.00">SubBackward0</text>
</g>
<!-- 5032218960&#45;&gt;5032218832 -->
<g id="edge3" class="edge">
<title>5032218960&#45;&gt;5032218832</title>
<path fill="none" stroke="black" d="M263.32,-167.59C263.32,-160.7 263.32,-151.1 263.32,-142.57"/>
<polygon fill="black" stroke="black" points="266.82,-142.3 263.32,-132.3 259.82,-142.3 266.82,-142.3"/>
</g>
<!-- 5032219152 -->
<g id="node5" class="node">
<title>5032219152</title>
<polygon fill="lightgrey" stroke="black" points="309.14,-244 217.51,-244 217.51,-224 309.14,-224 309.14,-244"/>
<text text-anchor="middle" x="263.32" y="-230.4" font-family="Times,serif" font-size="12.00">AddBackward0</text>
</g>
<!-- 5032219152&#45;&gt;5032218960 -->
<g id="edge4" class="edge">
<title>5032219152&#45;&gt;5032218960</title>
<path fill="none" stroke="black" d="M263.32,-223.59C263.32,-216.7 263.32,-207.1 263.32,-198.57"/>
<polygon fill="black" stroke="black" points="266.82,-198.3 263.32,-188.3 259.82,-198.3 266.82,-198.3"/>
</g>
<!-- 5032219280 -->
<g id="node6" class="node">
<title>5032219280</title>
<polygon fill="lightgrey" stroke="black" points="262.47,-306 178.18,-306 178.18,-286 262.47,-286 262.47,-306"/>
<text text-anchor="middle" x="220.32" y="-292.4" font-family="Times,serif" font-size="12.00">MmBackward</text>
</g>
<!-- 5032219280&#45;&gt;5032219152 -->
<g id="edge5" class="edge">
<title>5032219280&#45;&gt;5032219152</title>
<path fill="none" stroke="black" d="M226.85,-285.89C233.17,-277.08 242.9,-263.5 250.73,-252.58"/>
<polygon fill="black" stroke="black" points="253.75,-254.37 256.73,-244.2 248.06,-250.29 253.75,-254.37"/>
</g>
<!-- 5032219408 -->
<g id="node7" class="node">
<title>5032219408</title>
<polygon fill="lightgrey" stroke="black" points="221.13,-374 127.52,-374 127.52,-354 221.13,-354 221.13,-374"/>
<text text-anchor="middle" x="174.32" y="-360.4" font-family="Times,serif" font-size="12.00">ReluBackward0</text>
</g>
<!-- 5032219408&#45;&gt;5032219280 -->
<g id="edge6" class="edge">
<title>5032219408&#45;&gt;5032219280</title>
<path fill="none" stroke="black" d="M180.72,-353.82C187.79,-343.68 199.35,-327.1 208.16,-314.46"/>
<polygon fill="black" stroke="black" points="211.14,-316.3 213.98,-306.1 205.39,-312.3 211.14,-316.3"/>
</g>
<!-- 5032219600 -->
<g id="node8" class="node">
<title>5032219600</title>
<polygon fill="lightgrey" stroke="black" points="220.14,-436 128.51,-436 128.51,-416 220.14,-416 220.14,-436"/>
<text text-anchor="middle" x="174.32" y="-422.4" font-family="Times,serif" font-size="12.00">AddBackward0</text>
</g>
<!-- 5032219600&#45;&gt;5032219408 -->
<g id="edge7" class="edge">
<title>5032219600&#45;&gt;5032219408</title>
<path fill="none" stroke="black" d="M174.32,-415.89C174.32,-407.52 174.32,-394.84 174.32,-384.23"/>
<polygon fill="black" stroke="black" points="177.82,-384.2 174.32,-374.2 170.82,-384.2 177.82,-384.2"/>
</g>
<!-- 5032219728 -->
<g id="node9" class="node">
<title>5032219728</title>
<polygon fill="lightgrey" stroke="black" points="173.47,-498 89.18,-498 89.18,-478 173.47,-478 173.47,-498"/>
<text text-anchor="middle" x="131.32" y="-484.4" font-family="Times,serif" font-size="12.00">MmBackward</text>
</g>
<!-- 5032219728&#45;&gt;5032219600 -->
<g id="edge8" class="edge">
<title>5032219728&#45;&gt;5032219600</title>
<path fill="none" stroke="black" d="M137.85,-477.89C144.17,-469.08 153.9,-455.5 161.73,-444.58"/>
<polygon fill="black" stroke="black" points="164.75,-446.37 167.73,-436.2 159.06,-442.29 164.75,-446.37"/>
</g>
<!-- 5032219920 -->
<g id="node10" class="node">
<title>5032219920</title>
<polygon fill="lightgrey" stroke="black" points="132.13,-566 38.52,-566 38.52,-546 132.13,-546 132.13,-566"/>
<text text-anchor="middle" x="85.32" y="-552.4" font-family="Times,serif" font-size="12.00">ReluBackward0</text>
</g>
<!-- 5032219920&#45;&gt;5032219728 -->
<g id="edge9" class="edge">
<title>5032219920&#45;&gt;5032219728</title>
<path fill="none" stroke="black" d="M91.72,-545.82C98.79,-535.68 110.35,-519.1 119.16,-506.46"/>
<polygon fill="black" stroke="black" points="122.14,-508.3 124.98,-498.1 116.39,-504.3 122.14,-508.3"/>
</g>
<!-- 5032220112 -->
<g id="node11" class="node">
<title>5032220112</title>
<polygon fill="lightgrey" stroke="black" points="131.14,-628 39.51,-628 39.51,-608 131.14,-608 131.14,-628"/>
<text text-anchor="middle" x="85.32" y="-614.4" font-family="Times,serif" font-size="12.00">AddBackward0</text>
</g>
<!-- 5032220112&#45;&gt;5032219920 -->
<g id="edge10" class="edge">
<title>5032220112&#45;&gt;5032219920</title>
<path fill="none" stroke="black" d="M85.32,-607.89C85.32,-599.52 85.32,-586.84 85.32,-576.23"/>
<polygon fill="black" stroke="black" points="88.82,-576.2 85.32,-566.2 81.82,-576.2 88.82,-576.2"/>
</g>
<!-- 5032220240 -->
<g id="node12" class="node">
<title>5032220240</title>
<polygon fill="lightgrey" stroke="black" points="84.47,-690 0.18,-690 0.18,-670 84.47,-670 84.47,-690"/>
<text text-anchor="middle" x="42.32" y="-676.4" font-family="Times,serif" font-size="12.00">MmBackward</text>
</g>
<!-- 5032220240&#45;&gt;5032220112 -->
<g id="edge11" class="edge">
<title>5032220240&#45;&gt;5032220112</title>
<path fill="none" stroke="black" d="M48.85,-669.89C55.17,-661.08 64.9,-647.5 72.73,-636.58"/>
<polygon fill="black" stroke="black" points="75.75,-638.37 78.73,-628.2 70.06,-634.29 75.75,-638.37"/>
</g>
<!-- 5032220432 -->
<g id="node13" class="node">
<title>5032220432</title>
<polygon fill="lightblue" stroke="black" points="69.32,-764 15.32,-764 15.32,-732 69.32,-732 69.32,-764"/>
<text text-anchor="middle" x="42.32" y="-750.4" font-family="Times,serif" font-size="12.00">W0</text>
<text text-anchor="middle" x="42.32" y="-738.4" font-family="Times,serif" font-size="12.00"> (1, 10)</text>
</g>
<!-- 5032220432&#45;&gt;5032220240 -->
<g id="edge12" class="edge">
<title>5032220432&#45;&gt;5032220240</title>
<path fill="none" stroke="black" d="M42.32,-731.69C42.32,-722.4 42.32,-710.44 42.32,-700.47"/>
<polygon fill="black" stroke="black" points="45.82,-700.32 42.32,-690.32 38.82,-700.32 45.82,-700.32"/>
</g>
<!-- 5032220304 -->
<g id="node14" class="node">
<title>5032220304</title>
<polygon fill="lightblue" stroke="black" points="156.32,-696 102.32,-696 102.32,-664 156.32,-664 156.32,-696"/>
<text text-anchor="middle" x="129.32" y="-682.4" font-family="Times,serif" font-size="12.00">b0</text>
<text text-anchor="middle" x="129.32" y="-670.4" font-family="Times,serif" font-size="12.00"> (1, 10)</text>
</g>
<!-- 5032220304&#45;&gt;5032220112 -->
<g id="edge13" class="edge">
<title>5032220304&#45;&gt;5032220112</title>
<path fill="none" stroke="black" d="M118.22,-663.86C112.1,-655.51 104.47,-645.11 98.1,-636.42"/>
<polygon fill="black" stroke="black" points="100.77,-634.15 92.04,-628.15 95.13,-638.29 100.77,-634.15"/>
</g>
<!-- 5032219984 -->
<g id="node15" class="node">
<title>5032219984</title>
<polygon fill="lightblue" stroke="black" points="206.82,-572 149.83,-572 149.83,-540 206.82,-540 206.82,-572"/>
<text text-anchor="middle" x="178.32" y="-558.4" font-family="Times,serif" font-size="12.00">W1</text>
<text text-anchor="middle" x="178.32" y="-546.4" font-family="Times,serif" font-size="12.00"> (10, 10)</text>
</g>
<!-- 5032219984&#45;&gt;5032219728 -->
<g id="edge14" class="edge">
<title>5032219984&#45;&gt;5032219728</title>
<path fill="none" stroke="black" d="M167.42,-539.69C160.38,-529.8 151.18,-516.89 143.84,-506.57"/>
<polygon fill="black" stroke="black" points="146.61,-504.43 137.96,-498.32 140.91,-508.49 146.61,-504.43"/>
</g>
<!-- 5032219792 -->
<g id="node16" class="node">
<title>5032219792</title>
<polygon fill="lightblue" stroke="black" points="245.32,-504 191.32,-504 191.32,-472 245.32,-472 245.32,-504"/>
<text text-anchor="middle" x="218.32" y="-490.4" font-family="Times,serif" font-size="12.00">b1</text>
<text text-anchor="middle" x="218.32" y="-478.4" font-family="Times,serif" font-size="12.00"> (1, 10)</text>
</g>
<!-- 5032219792&#45;&gt;5032219600 -->
<g id="edge15" class="edge">
<title>5032219792&#45;&gt;5032219600</title>
<path fill="none" stroke="black" d="M207.22,-471.86C201.1,-463.51 193.47,-453.11 187.1,-444.42"/>
<polygon fill="black" stroke="black" points="189.77,-442.15 181.04,-436.15 184.13,-446.29 189.77,-442.15"/>
</g>
<!-- 5032219472 -->
<g id="node17" class="node">
<title>5032219472</title>
<polygon fill="lightblue" stroke="black" points="293.32,-380 239.32,-380 239.32,-348 293.32,-348 293.32,-380"/>
<text text-anchor="middle" x="266.32" y="-366.4" font-family="Times,serif" font-size="12.00">W2</text>
<text text-anchor="middle" x="266.32" y="-354.4" font-family="Times,serif" font-size="12.00"> (10, 1)</text>
</g>
<!-- 5032219472&#45;&gt;5032219280 -->
<g id="edge16" class="edge">
<title>5032219472&#45;&gt;5032219280</title>
<path fill="none" stroke="black" d="M255.66,-347.69C248.76,-337.8 239.76,-324.89 232.57,-314.57"/>
<polygon fill="black" stroke="black" points="235.41,-312.52 226.82,-306.32 229.66,-316.52 235.41,-312.52"/>
</g>
<!-- 5032219344 -->
<g id="node18" class="node">
<title>5032219344</title>
<polygon fill="lightblue" stroke="black" points="334.32,-312 280.32,-312 280.32,-280 334.32,-280 334.32,-312"/>
<text text-anchor="middle" x="307.32" y="-298.4" font-family="Times,serif" font-size="12.00">b2</text>
<text text-anchor="middle" x="307.32" y="-286.4" font-family="Times,serif" font-size="12.00"> (1, 1)</text>
</g>
<!-- 5032219344&#45;&gt;5032219152 -->
<g id="edge17" class="edge">
<title>5032219344&#45;&gt;5032219152</title>
<path fill="none" stroke="black" d="M296.22,-279.86C290.1,-271.51 282.47,-261.11 276.1,-252.42"/>
<polygon fill="black" stroke="black" points="278.77,-250.15 270.04,-244.15 273.13,-254.29 278.77,-250.15"/>
</g>
</g>
</svg>
