<?xml version="1.0" encoding="UTF-8" standalone="no"?>
<!DOCTYPE svg PUBLIC "-//W3C//DTD SVG 1.1//EN"
 "http://www.w3.org/Graphics/SVG/1.1/DTD/svg11.dtd">
<!-- Generated by graphviz version 2.43.0 (0)
 -->
<!-- Title: %3 Pages: 1 -->
<svg width="209pt" height="824pt"
 viewBox="0.00 0.00 208.98 824.00" xmlns="http://www.w3.org/2000/svg" xmlns:xlink="http://www.w3.org/1999/xlink">
<g id="graph0" class="graph" transform="scale(1 1) rotate(0) translate(4 820)">
<title>%3</title>
<polygon fill="white" stroke="transparent" points="-4,4 -4,-820 204.98,-820 204.98,4 -4,4"/>
<!-- 4873221776 -->
<g id="node1" class="node">
<title>4873221776</title>
<polygon fill="#caff70" stroke="black" points="143.47,-20 55.18,-20 55.18,0 143.47,0 143.47,-20"/>
<text text-anchor="middle" x="99.32" y="-6.4" font-family="Times,serif" font-size="12.00">DivBackward0</text>
</g>
<!-- 4873221840 -->
<g id="node2" class="node">
<title>4873221840</title>
<polygon fill="lightgrey" stroke="black" points="141.46,-76 57.19,-76 57.19,-56 141.46,-56 141.46,-76"/>
<text text-anchor="middle" x="99.32" y="-62.4" font-family="Times,serif" font-size="12.00">NegBackward</text>
</g>
<!-- 4873221840&#45;&gt;4873221776 -->
<g id="edge1" class="edge">
<title>4873221840&#45;&gt;4873221776</title>
<path fill="none" stroke="black" d="M99.32,-55.59C99.32,-48.7 99.32,-39.1 99.32,-30.57"/>
<polygon fill="black" stroke="black" points="102.82,-30.3 99.32,-20.3 95.82,-30.3 102.82,-30.3"/>
</g>
<!-- 4873221968 -->
<g id="node3" class="node">
<title>4873221968</title>
<polygon fill="lightgrey" stroke="black" points="145.48,-132 53.17,-132 53.17,-112 145.48,-112 145.48,-132"/>
<text text-anchor="middle" x="99.32" y="-118.4" font-family="Times,serif" font-size="12.00">SumBackward0</text>
</g>
<!-- 4873221968&#45;&gt;4873221840 -->
<g id="edge2" class="edge">
<title>4873221968&#45;&gt;4873221840</title>
<path fill="none" stroke="black" d="M99.32,-111.59C99.32,-104.7 99.32,-95.1 99.32,-86.57"/>
<polygon fill="black" stroke="black" points="102.82,-86.3 99.32,-76.3 95.82,-86.3 102.82,-86.3"/>
</g>
<!-- 4873222096 -->
<g id="node4" class="node">
<title>4873222096</title>
<polygon fill="lightgrey" stroke="black" points="145.14,-188 53.51,-188 53.51,-168 145.14,-168 145.14,-188"/>
<text text-anchor="middle" x="99.32" y="-174.4" font-family="Times,serif" font-size="12.00">AddBackward0</text>
</g>
<!-- 4873222096&#45;&gt;4873221968 -->
<g id="edge3" class="edge">
<title>4873222096&#45;&gt;4873221968</title>
<path fill="none" stroke="black" d="M99.32,-167.59C99.32,-160.7 99.32,-151.1 99.32,-142.57"/>
<polygon fill="black" stroke="black" points="102.82,-142.3 99.32,-132.3 95.82,-142.3 102.82,-142.3"/>
</g>
<!-- 4873222288 -->
<g id="node5" class="node">
<title>4873222288</title>
<polygon fill="lightgrey" stroke="black" points="90.47,-244 0.18,-244 0.18,-224 90.47,-224 90.47,-244"/>
<text text-anchor="middle" x="45.32" y="-230.4" font-family="Times,serif" font-size="12.00">MulBackward0</text>
</g>
<!-- 4873222288&#45;&gt;4873222096 -->
<g id="edge4" class="edge">
<title>4873222288&#45;&gt;4873222096</title>
<path fill="none" stroke="black" d="M54.73,-223.59C62.47,-215.85 73.64,-204.69 82.86,-195.47"/>
<polygon fill="black" stroke="black" points="85.43,-197.84 90.03,-188.3 80.48,-192.89 85.43,-197.84"/>
</g>
<!-- 4873222480 -->
<g id="node6" class="node">
<title>4873222480</title>
<polygon fill="lightgrey" stroke="black" points="87.3,-356 3.35,-356 3.35,-336 87.3,-336 87.3,-356"/>
<text text-anchor="middle" x="45.32" y="-342.4" font-family="Times,serif" font-size="12.00">LogBackward</text>
</g>
<!-- 4873222480&#45;&gt;4873222288 -->
<g id="edge5" class="edge">
<title>4873222480&#45;&gt;4873222288</title>
<path fill="none" stroke="black" d="M45.32,-336C45.32,-318.19 45.32,-278.12 45.32,-254.15"/>
<polygon fill="black" stroke="black" points="48.82,-254.13 45.32,-244.13 41.82,-254.13 48.82,-254.13"/>
</g>
<!-- 4873222224 -->
<g id="node7" class="node">
<title>4873222224</title>
<polygon fill="lightgrey" stroke="black" points="143.47,-412 55.18,-412 55.18,-392 143.47,-392 143.47,-412"/>
<text text-anchor="middle" x="99.32" y="-398.4" font-family="Times,serif" font-size="12.00">DivBackward0</text>
</g>
<!-- 4873222224&#45;&gt;4873222480 -->
<g id="edge6" class="edge">
<title>4873222224&#45;&gt;4873222480</title>
<path fill="none" stroke="black" d="M89.92,-391.59C82.17,-383.85 71.01,-372.69 61.79,-363.47"/>
<polygon fill="black" stroke="black" points="64.17,-360.89 54.62,-356.3 59.22,-365.84 64.17,-360.89"/>
</g>
<!-- 4873222800 -->
<g id="node20" class="node">
<title>4873222800</title>
<polygon fill="lightgrey" stroke="black" points="201.14,-356 105.51,-356 105.51,-336 201.14,-336 201.14,-356"/>
<text text-anchor="middle" x="153.32" y="-342.4" font-family="Times,serif" font-size="12.00">RsubBackward1</text>
</g>
<!-- 4873222224&#45;&gt;4873222800 -->
<g id="edge22" class="edge">
<title>4873222224&#45;&gt;4873222800</title>
<path fill="none" stroke="black" d="M108.73,-391.59C116.47,-383.85 127.64,-372.69 136.86,-363.47"/>
<polygon fill="black" stroke="black" points="139.43,-365.84 144.03,-356.3 134.48,-360.89 139.43,-365.84"/>
</g>
<!-- 4873222672 -->
<g id="node8" class="node">
<title>4873222672</title>
<polygon fill="lightgrey" stroke="black" points="88.3,-468 4.35,-468 4.35,-448 88.3,-448 88.3,-468"/>
<text text-anchor="middle" x="46.32" y="-454.4" font-family="Times,serif" font-size="12.00">ExpBackward</text>
</g>
<!-- 4873222672&#45;&gt;4873222224 -->
<g id="edge7" class="edge">
<title>4873222672&#45;&gt;4873222224</title>
<path fill="none" stroke="black" d="M55.56,-447.59C63.16,-439.85 74.11,-428.69 83.16,-419.47"/>
<polygon fill="black" stroke="black" points="85.69,-421.89 90.2,-412.3 80.7,-416.98 85.69,-421.89"/>
</g>
<!-- 4873222864 -->
<g id="node9" class="node">
<title>4873222864</title>
<polygon fill="lightgrey" stroke="black" points="90.46,-580 6.19,-580 6.19,-560 90.46,-560 90.46,-580"/>
<text text-anchor="middle" x="48.32" y="-566.4" font-family="Times,serif" font-size="12.00">NegBackward</text>
</g>
<!-- 4873222864&#45;&gt;4873222672 -->
<g id="edge8" class="edge">
<title>4873222864&#45;&gt;4873222672</title>
<path fill="none" stroke="black" d="M48.16,-560C47.84,-542.19 47.11,-502.12 46.67,-478.15"/>
<polygon fill="black" stroke="black" points="50.17,-478.06 46.49,-468.13 43.17,-478.19 50.17,-478.06"/>
</g>
<!-- 4873222992 -->
<g id="node10" class="node">
<title>4873222992</title>
<polygon fill="lightgrey" stroke="black" points="145.14,-636 53.51,-636 53.51,-616 145.14,-616 145.14,-636"/>
<text text-anchor="middle" x="99.32" y="-622.4" font-family="Times,serif" font-size="12.00">AddBackward0</text>
</g>
<!-- 4873222992&#45;&gt;4873222864 -->
<g id="edge9" class="edge">
<title>4873222992&#45;&gt;4873222864</title>
<path fill="none" stroke="black" d="M90.44,-615.59C83.2,-607.93 72.8,-596.91 64.14,-587.75"/>
<polygon fill="black" stroke="black" points="66.52,-585.17 57.11,-580.3 61.43,-589.97 66.52,-585.17"/>
</g>
<!-- 4873223248 -->
<g id="node17" class="node">
<title>4873223248</title>
<polygon fill="lightgrey" stroke="black" points="193.46,-580 109.19,-580 109.19,-560 193.46,-560 193.46,-580"/>
<text text-anchor="middle" x="151.32" y="-566.4" font-family="Times,serif" font-size="12.00">NegBackward</text>
</g>
<!-- 4873222992&#45;&gt;4873223248 -->
<g id="edge18" class="edge">
<title>4873222992&#45;&gt;4873223248</title>
<path fill="none" stroke="black" d="M108.38,-615.59C115.76,-607.93 126.37,-596.91 135.2,-587.75"/>
<polygon fill="black" stroke="black" points="137.95,-589.93 142.37,-580.3 132.91,-585.07 137.95,-589.93"/>
</g>
<!-- 4873223120 -->
<g id="node11" class="node">
<title>4873223120</title>
<polygon fill="lightgrey" stroke="black" points="88.47,-692 4.18,-692 4.18,-672 88.47,-672 88.47,-692"/>
<text text-anchor="middle" x="46.32" y="-678.4" font-family="Times,serif" font-size="12.00">MmBackward</text>
</g>
<!-- 4873223120&#45;&gt;4873222992 -->
<g id="edge10" class="edge">
<title>4873223120&#45;&gt;4873222992</title>
<path fill="none" stroke="black" d="M55.56,-671.59C63.16,-663.85 74.11,-652.69 83.16,-643.47"/>
<polygon fill="black" stroke="black" points="85.69,-645.89 90.2,-636.3 80.7,-640.98 85.69,-645.89"/>
</g>
<!-- 4873223312 -->
<g id="node12" class="node">
<title>4873223312</title>
<polygon fill="lightgrey" stroke="black" points="107.46,-748 19.18,-748 19.18,-728 107.46,-728 107.46,-748"/>
<text text-anchor="middle" x="63.32" y="-734.4" font-family="Times,serif" font-size="12.00">SliceBackward</text>
</g>
<!-- 4873223312&#45;&gt;4873223120 -->
<g id="edge11" class="edge">
<title>4873223312&#45;&gt;4873223120</title>
<path fill="none" stroke="black" d="M60.36,-727.59C58.14,-720.55 55.04,-710.67 52.31,-702"/>
<polygon fill="black" stroke="black" points="55.59,-700.79 49.25,-692.3 48.92,-702.89 55.59,-700.79"/>
</g>
<!-- 4873223440 -->
<g id="node13" class="node">
<title>4873223440</title>
<polygon fill="lightblue" stroke="black" points="126.32,-816 72.32,-816 72.32,-784 126.32,-784 126.32,-816"/>
<text text-anchor="middle" x="99.32" y="-802.4" font-family="Times,serif" font-size="12.00">β</text>
<text text-anchor="middle" x="99.32" y="-790.4" font-family="Times,serif" font-size="12.00"> (6, 1)</text>
</g>
<!-- 4873223440&#45;&gt;4873223312 -->
<g id="edge12" class="edge">
<title>4873223440&#45;&gt;4873223312</title>
<path fill="none" stroke="black" d="M90.24,-783.86C85.34,-775.69 79.25,-765.55 74.11,-756.98"/>
<polygon fill="black" stroke="black" points="76.96,-754.93 68.82,-748.15 70.96,-758.53 76.96,-754.93"/>
</g>
<!-- 4873223184 -->
<g id="node14" class="node">
<title>4873223184</title>
<polygon fill="lightgrey" stroke="black" points="200.29,-692 106.36,-692 106.36,-672 200.29,-672 200.29,-692"/>
<text text-anchor="middle" x="153.32" y="-678.4" font-family="Times,serif" font-size="12.00">SelectBackward</text>
</g>
<!-- 4873223440&#45;&gt;4873223184 -->
<g id="edge14" class="edge">
<title>4873223440&#45;&gt;4873223184</title>
<path fill="none" stroke="black" d="M106.38,-783.84C116.25,-762.64 134.15,-724.2 144.76,-701.39"/>
<polygon fill="black" stroke="black" points="148.02,-702.68 149.07,-692.14 141.68,-699.72 148.02,-702.68"/>
</g>
<!-- 4873223184&#45;&gt;4873222992 -->
<g id="edge13" class="edge">
<title>4873223184&#45;&gt;4873222992</title>
<path fill="none" stroke="black" d="M143.92,-671.59C136.17,-663.85 125.01,-652.69 115.79,-643.47"/>
<polygon fill="black" stroke="black" points="118.17,-640.89 108.62,-636.3 113.22,-645.84 118.17,-640.89"/>
</g>
<!-- 4873222736 -->
<g id="node15" class="node">
<title>4873222736</title>
<polygon fill="lightgrey" stroke="black" points="198.14,-468 106.51,-468 106.51,-448 198.14,-448 198.14,-468"/>
<text text-anchor="middle" x="152.32" y="-454.4" font-family="Times,serif" font-size="12.00">AddBackward0</text>
</g>
<!-- 4873222736&#45;&gt;4873222224 -->
<g id="edge15" class="edge">
<title>4873222736&#45;&gt;4873222224</title>
<path fill="none" stroke="black" d="M143.09,-447.59C135.49,-439.85 124.54,-428.69 115.49,-419.47"/>
<polygon fill="black" stroke="black" points="117.95,-416.98 108.45,-412.3 112.96,-421.89 117.95,-416.98"/>
</g>
<!-- 4873222928 -->
<g id="node16" class="node">
<title>4873222928</title>
<polygon fill="lightgrey" stroke="black" points="193.3,-524 109.35,-524 109.35,-504 193.3,-504 193.3,-524"/>
<text text-anchor="middle" x="151.32" y="-510.4" font-family="Times,serif" font-size="12.00">ExpBackward</text>
</g>
<!-- 4873222928&#45;&gt;4873222736 -->
<g id="edge16" class="edge">
<title>4873222928&#45;&gt;4873222736</title>
<path fill="none" stroke="black" d="M151.5,-503.59C151.63,-496.7 151.8,-487.1 151.96,-478.57"/>
<polygon fill="black" stroke="black" points="155.47,-478.36 152.15,-468.3 148.47,-478.23 155.47,-478.36"/>
</g>
<!-- 4873223248&#45;&gt;4873222928 -->
<g id="edge17" class="edge">
<title>4873223248&#45;&gt;4873222928</title>
<path fill="none" stroke="black" d="M151.32,-559.59C151.32,-552.7 151.32,-543.1 151.32,-534.57"/>
<polygon fill="black" stroke="black" points="154.82,-534.3 151.32,-524.3 147.82,-534.3 154.82,-534.3"/>
</g>
<!-- 4873222352 -->
<g id="node18" class="node">
<title>4873222352</title>
<polygon fill="lightgrey" stroke="black" points="199.47,-244 109.18,-244 109.18,-224 199.47,-224 199.47,-244"/>
<text text-anchor="middle" x="154.32" y="-230.4" font-family="Times,serif" font-size="12.00">MulBackward0</text>
</g>
<!-- 4873222352&#45;&gt;4873222096 -->
<g id="edge19" class="edge">
<title>4873222352&#45;&gt;4873222096</title>
<path fill="none" stroke="black" d="M144.74,-223.59C136.86,-215.85 125.49,-204.69 116.1,-195.47"/>
<polygon fill="black" stroke="black" points="118.38,-192.81 108.79,-188.3 113.48,-197.8 118.38,-192.81"/>
</g>
<!-- 4873222544 -->
<g id="node19" class="node">
<title>4873222544</title>
<polygon fill="lightgrey" stroke="black" points="195.3,-300 111.35,-300 111.35,-280 195.3,-280 195.3,-300"/>
<text text-anchor="middle" x="153.32" y="-286.4" font-family="Times,serif" font-size="12.00">LogBackward</text>
</g>
<!-- 4873222544&#45;&gt;4873222352 -->
<g id="edge20" class="edge">
<title>4873222544&#45;&gt;4873222352</title>
<path fill="none" stroke="black" d="M153.5,-279.59C153.63,-272.7 153.8,-263.1 153.96,-254.57"/>
<polygon fill="black" stroke="black" points="157.47,-254.36 154.15,-244.3 150.47,-254.23 157.47,-254.36"/>
</g>
<!-- 4873222800&#45;&gt;4873222544 -->
<g id="edge21" class="edge">
<title>4873222800&#45;&gt;4873222544</title>
<path fill="none" stroke="black" d="M153.32,-335.59C153.32,-328.7 153.32,-319.1 153.32,-310.57"/>
<polygon fill="black" stroke="black" points="156.82,-310.3 153.32,-300.3 149.82,-310.3 156.82,-310.3"/>
</g>
</g>
</svg>
