<?xml version="1.0" encoding="UTF-8" standalone="no"?>
<!DOCTYPE svg PUBLIC "-//W3C//DTD SVG 1.1//EN"
 "http://www.w3.org/Graphics/SVG/1.1/DTD/svg11.dtd">
<!-- Generated by graphviz version 2.43.0 (0)
 -->
<!-- Title: %3 Pages: 1 -->
<svg width="204pt" height="432pt"
 viewBox="0.00 0.00 204.31 432.00" xmlns="http://www.w3.org/2000/svg" xmlns:xlink="http://www.w3.org/1999/xlink">
<g id="graph0" class="graph" transform="scale(1 1) rotate(0) translate(4 428)">
<title>%3</title>
<polygon fill="white" stroke="transparent" points="-4,4 -4,-428 200.31,-428 200.31,4 -4,4"/>
<!-- 4928321744 -->
<g id="node1" class="node">
<title>4928321744</title>
<polygon fill="#caff70" stroke="black" points="139.47,-20 51.18,-20 51.18,0 139.47,0 139.47,-20"/>
<text text-anchor="middle" x="95.32" y="-6.4" font-family="Times,serif" font-size="12.00">DivBackward0</text>
</g>
<!-- 4928321424 -->
<g id="node2" class="node">
<title>4928321424</title>
<polygon fill="lightgrey" stroke="black" points="141.48,-76 49.17,-76 49.17,-56 141.48,-56 141.48,-76"/>
<text text-anchor="middle" x="95.32" y="-62.4" font-family="Times,serif" font-size="12.00">SumBackward0</text>
</g>
<!-- 4928321424&#45;&gt;4928321744 -->
<g id="edge1" class="edge">
<title>4928321424&#45;&gt;4928321744</title>
<path fill="none" stroke="black" d="M95.32,-55.59C95.32,-48.7 95.32,-39.1 95.32,-30.57"/>
<polygon fill="black" stroke="black" points="98.82,-30.3 95.32,-20.3 91.82,-30.3 98.82,-30.3"/>
</g>
<!-- 4928321168 -->
<g id="node3" class="node">
<title>4928321168</title>
<polygon fill="lightgrey" stroke="black" points="141.31,-132 49.34,-132 49.34,-112 141.31,-112 141.31,-132"/>
<text text-anchor="middle" x="95.32" y="-118.4" font-family="Times,serif" font-size="12.00">PowBackward0</text>
</g>
<!-- 4928321168&#45;&gt;4928321424 -->
<g id="edge2" class="edge">
<title>4928321168&#45;&gt;4928321424</title>
<path fill="none" stroke="black" d="M95.32,-111.59C95.32,-104.7 95.32,-95.1 95.32,-86.57"/>
<polygon fill="black" stroke="black" points="98.82,-86.3 95.32,-76.3 91.82,-86.3 98.82,-86.3"/>
</g>
<!-- 4928320272 -->
<g id="node4" class="node">
<title>4928320272</title>
<polygon fill="lightgrey" stroke="black" points="140.14,-188 50.51,-188 50.51,-168 140.14,-168 140.14,-188"/>
<text text-anchor="middle" x="95.32" y="-174.4" font-family="Times,serif" font-size="12.00">SubBackward0</text>
</g>
<!-- 4928320272&#45;&gt;4928321168 -->
<g id="edge3" class="edge">
<title>4928320272&#45;&gt;4928321168</title>
<path fill="none" stroke="black" d="M95.32,-167.59C95.32,-160.7 95.32,-151.1 95.32,-142.57"/>
<polygon fill="black" stroke="black" points="98.82,-142.3 95.32,-132.3 91.82,-142.3 98.82,-142.3"/>
</g>
<!-- 4928321296 -->
<g id="node5" class="node">
<title>4928321296</title>
<polygon fill="lightgrey" stroke="black" points="141.14,-244 49.51,-244 49.51,-224 141.14,-224 141.14,-244"/>
<text text-anchor="middle" x="95.32" y="-230.4" font-family="Times,serif" font-size="12.00">AddBackward0</text>
</g>
<!-- 4928321296&#45;&gt;4928320272 -->
<g id="edge4" class="edge">
<title>4928321296&#45;&gt;4928320272</title>
<path fill="none" stroke="black" d="M95.32,-223.59C95.32,-216.7 95.32,-207.1 95.32,-198.57"/>
<polygon fill="black" stroke="black" points="98.82,-198.3 95.32,-188.3 91.82,-198.3 98.82,-198.3"/>
</g>
<!-- 4928319888 -->
<g id="node6" class="node">
<title>4928319888</title>
<polygon fill="lightgrey" stroke="black" points="84.47,-300 0.18,-300 0.18,-280 84.47,-280 84.47,-300"/>
<text text-anchor="middle" x="42.32" y="-286.4" font-family="Times,serif" font-size="12.00">MmBackward</text>
</g>
<!-- 4928319888&#45;&gt;4928321296 -->
<g id="edge5" class="edge">
<title>4928319888&#45;&gt;4928321296</title>
<path fill="none" stroke="black" d="M51.56,-279.59C59.16,-271.85 70.11,-260.69 79.16,-251.47"/>
<polygon fill="black" stroke="black" points="81.69,-253.89 86.2,-244.3 76.7,-248.98 81.69,-253.89"/>
</g>
<!-- 4928323472 -->
<g id="node7" class="node">
<title>4928323472</title>
<polygon fill="lightgrey" stroke="black" points="103.46,-356 15.18,-356 15.18,-336 103.46,-336 103.46,-356"/>
<text text-anchor="middle" x="59.32" y="-342.4" font-family="Times,serif" font-size="12.00">SliceBackward</text>
</g>
<!-- 4928323472&#45;&gt;4928319888 -->
<g id="edge6" class="edge">
<title>4928323472&#45;&gt;4928319888</title>
<path fill="none" stroke="black" d="M56.36,-335.59C54.14,-328.55 51.04,-318.67 48.31,-310"/>
<polygon fill="black" stroke="black" points="51.59,-308.79 45.25,-300.3 44.92,-310.89 51.59,-308.79"/>
</g>
<!-- 4928322064 -->
<g id="node8" class="node">
<title>4928322064</title>
<polygon fill="lightblue" stroke="black" points="122.32,-424 68.32,-424 68.32,-392 122.32,-392 122.32,-424"/>
<text text-anchor="middle" x="95.32" y="-410.4" font-family="Times,serif" font-size="12.00">β</text>
<text text-anchor="middle" x="95.32" y="-398.4" font-family="Times,serif" font-size="12.00"> (6, 1)</text>
</g>
<!-- 4928322064&#45;&gt;4928323472 -->
<g id="edge7" class="edge">
<title>4928322064&#45;&gt;4928323472</title>
<path fill="none" stroke="black" d="M86.24,-391.86C81.34,-383.69 75.25,-373.55 70.11,-364.98"/>
<polygon fill="black" stroke="black" points="72.96,-362.93 64.82,-356.15 66.96,-366.53 72.96,-362.93"/>
</g>
<!-- 4928320720 -->
<g id="node9" class="node">
<title>4928320720</title>
<polygon fill="lightgrey" stroke="black" points="196.29,-300 102.36,-300 102.36,-280 196.29,-280 196.29,-300"/>
<text text-anchor="middle" x="149.32" y="-286.4" font-family="Times,serif" font-size="12.00">SelectBackward</text>
</g>
<!-- 4928322064&#45;&gt;4928320720 -->
<g id="edge9" class="edge">
<title>4928322064&#45;&gt;4928320720</title>
<path fill="none" stroke="black" d="M102.38,-391.84C112.25,-370.64 130.15,-332.2 140.76,-309.39"/>
<polygon fill="black" stroke="black" points="144.02,-310.68 145.07,-300.14 137.68,-307.72 144.02,-310.68"/>
</g>
<!-- 4928320720&#45;&gt;4928321296 -->
<g id="edge8" class="edge">
<title>4928320720&#45;&gt;4928321296</title>
<path fill="none" stroke="black" d="M139.92,-279.59C132.17,-271.85 121.01,-260.69 111.79,-251.47"/>
<polygon fill="black" stroke="black" points="114.17,-248.89 104.62,-244.3 109.22,-253.84 114.17,-248.89"/>
</g>
</g>
</svg>
